<svg width="24" height="24" viewBox="0 0 24 24" fill="none" xmlns="http://www.w3.org/2000/svg">
<path fill-rule="evenodd" clip-rule="evenodd" d="M12.3863 10.6395C12.1352 10.558 11.8648 10.558 11.6137 10.6395C11.5171 10.671 11.3904 10.7384 11.1708 10.9249C10.9444 11.117 10.6724 11.3882 10.2676 11.793L6.53033 15.5303C6.23744 15.8232 5.76256 15.8232 5.46967 15.5303C5.17678 15.2374 5.17678 14.7625 5.46967 14.4696L9.20693 10.7324L9.22845 10.7108C9.60615 10.3331 9.9214 10.0179 10.2 9.78134C10.4906 9.53467 10.7902 9.32993 11.1502 9.21296C11.7025 9.0335 12.2975 9.0335 12.8498 9.21296C13.2098 9.32993 13.5094 9.53467 13.8 9.78134C14.0786 10.0179 14.3939 10.3331 14.7715 10.7108L14.7931 10.7324L18.5303 14.4696C18.8232 14.7625 18.8232 15.2374 18.5303 15.5303C18.2374 15.8232 17.7626 15.8232 17.4697 15.5303L13.7324 11.793C13.3276 11.3882 13.0556 11.117 12.8292 10.9249C12.6096 10.7384 12.4829 10.671 12.3863 10.6395Z" fill="#22272F"/>
</svg>
