<svg width="16" height="16" viewBox="0 0 16 16" fill="none" xmlns="http://www.w3.org/2000/svg">
<path d="M9.15327 2.3401L10.3266 4.68677C10.4866 5.01343 10.9133 5.32677 11.2733 5.38677L13.3999 5.7401C14.7599 5.96677 15.0799 6.95343 14.0999 7.92677L12.4466 9.5801C12.1666 9.8601 12.0133 10.4001 12.0999 10.7868L12.5733 12.8334C12.9466 14.4534 12.0866 15.0801 10.6533 14.2334L8.65994 13.0534C8.29994 12.8401 7.70661 12.8401 7.33994 13.0534L5.34661 14.2334C3.91994 15.0801 3.05327 14.4468 3.42661 12.8334L3.89994 10.7868C3.98661 10.4001 3.83327 9.8601 3.55327 9.5801L1.89994 7.92677C0.926606 6.95343 1.23994 5.96677 2.59994 5.7401L4.72661 5.38677C5.07994 5.32677 5.50661 5.01343 5.66661 4.68677L6.83994 2.3401C7.47994 1.06677 8.51994 1.06677 9.15327 2.3401Z" stroke="#9C5ADD" stroke-linecap="round" stroke-linejoin="round"/>
</svg>
